External Loads File
version=1
nRows=62
nColumns=13
Range=5.000000e-03-10 seconds
endheader
time 	forceRightX 	forceRightY 	forceRightZ 	pointRightX 	pointRightY 	pointRightZ 	forceLeftX 	forceLeftY 	forceLeftZ 	pointLeftX 	pointLeftY 	pointLeftZ 		
5.005000 307.704056 759.386632 -0.000000 0.255917 0.122665 -0.158794 -52.593551 -26.635256 -0.000000 0.323536 0.465087 -0.409743
5.010000 298.907282 695.105814 -0.000000 0.246392 0.123693 -0.157994 -58.609976 -15.585520 -0.000000 0.333335 0.463962 -0.409853
5.015000 288.583190 627.032739 -0.000000 0.236658 0.125503 -0.157457 -62.896131 -3.301073 -0.000000 0.342991 0.462329 -0.410022
5.020000 277.070187 556.052108 -0.000000 0.226430 0.128273 -0.157656 -65.298278 10.152228 -0.000000 0.352247 0.460115 -0.410328
5.025000 261.967126 484.373459 -0.000000 0.217194 0.131793 -0.157412 -65.817432 24.629111 -0.000000 0.360644 0.457139 -0.410872
5.030000 245.464087 411.915089 -0.000000 0.208113 0.136116 -0.157483 -64.497828 40.831443 -0.000000 0.368665 0.453563 -0.411311
5.035000 227.174678 339.909549 -0.000000 0.199354 0.141208 -0.157903 -61.542354 59.425464 -0.000000 0.376058 0.449618 -0.411790
5.040000 207.490068 269.278706 -0.000000 0.191080 0.146983 -0.158398 -57.221966 81.342859 -0.000000 0.382758 0.444957 -0.412232
5.045000 187.260275 200.606916 -0.000000 0.182741 0.153413 -0.159136 -51.662736 107.657709 -0.000000 0.388854 0.439498 -0.412995
5.050000 166.335731 135.281046 -0.000000 0.175370 0.160301 -0.159222 -45.451074 139.046909 -0.000000 0.394340 0.433333 -0.413627
5.055000 145.308021 74.172536 -0.000000 0.168539 0.167930 -0.159182 -39.376765 175.991730 -0.000000 0.398604 0.427367 -0.413481
5.060000 124.963175 17.518391 -0.000000 0.162432 0.176187 -0.158550 -33.766253 218.729304 -0.000000 0.402403 0.421067 -0.413760
5.065000 105.302802 -34.245501 -0.000000 0.156374 0.185039 -0.158723 -28.630375 266.959005 -0.000000 0.405739 0.413991 -0.414117
5.070000 85.845196 -80.199734 -0.000000 0.150645 0.194527 -0.159473 -24.270594 319.749588 -0.000000 0.408777 0.406313 -0.414739
5.075000 66.341065 -119.179384 -0.000000 0.145832 0.204028 -0.160426 -21.564970 375.606347 -0.000000 0.411362 0.397920 -0.415085
5.080000 46.453890 -150.394224 -0.000000 0.141911 0.213840 -0.160974 -19.853186 432.629858 -0.000000 0.413701 0.388732 -0.415397
5.085000 26.752576 -173.119955 -0.000000 0.138835 0.223493 -0.161623 -19.775431 488.489921 -0.000000 0.415873 0.379345 -0.415470
5.090000 7.862197 -187.422726 -0.000000 0.136228 0.233011 -0.162025 -20.706924 540.929050 -0.000000 0.417681 0.369593 -0.415572
5.095000 -9.468055 -194.005898 -0.000000 0.134165 0.242872 -0.162423 -21.711948 588.107809 -0.000000 0.419140 0.359532 -0.415576
5.100000 -24.338897 -194.072214 -0.000000 0.132519 0.253015 -0.162905 -22.326337 628.852369 -0.000000 0.420366 0.349149 -0.415492
5.105000 -35.913070 -189.059498 -0.000000 0.131438 0.263474 -0.163447 -22.575545 662.694888 -0.000000 0.421325 0.338556 -0.415512
5.110000 -43.805309 -180.332906 -0.000000 0.130703 0.274173 -0.164090 -22.026523 689.779297 -0.000000 0.421925 0.327599 -0.415585
5.115000 -47.513951 -169.187721 -0.000000 0.130524 0.284879 -0.164336 -22.050887 710.637820 -0.000000 0.422110 0.316684 -0.415490
5.120000 -47.235571 -156.617587 -0.000000 0.130539 0.295395 -0.164626 -22.905125 726.166017 -0.000000 0.421901 0.305786 -0.415473
5.125000 -43.549625 -143.344305 -0.000000 0.131505 0.305800 -0.164623 -24.390955 737.488370 -0.000000 0.421280 0.294886 -0.415253
5.130000 -37.253053 -129.924618 -0.000000 0.133145 0.316196 -0.164413 -26.079281 745.846424 -0.000000 0.420220 0.284041 -0.415031
5.135000 -29.267356 -116.820450 -0.000000 0.135298 0.326603 -0.164172 -27.241511 752.478019 -0.000000 0.418486 0.273116 -0.414867
5.140000 -20.442206 -104.419719 -0.000000 0.138057 0.337108 -0.164145 -27.542648 758.463135 -0.000000 0.416423 0.262205 -0.414685
5.145000 -11.486155 -92.978083 -0.000000 0.141440 0.347404 -0.164021 -27.288383 764.591911 -0.000000 0.413771 0.251411 -0.414546
5.150000 -3.114465 -82.566464 -0.000000 0.145295 0.357631 -0.164213 -25.847926 771.306742 -0.000000 0.410595 0.240874 -0.414468
5.155000 4.128006 -73.164253 -0.000000 0.149787 0.367669 -0.164385 -22.373748 778.650482 -0.000000 0.406813 0.230533 -0.414418
5.160000 9.941762 -64.753148 -0.000000 0.154930 0.377506 -0.164631 -16.712814 786.366737 -0.000000 0.402576 0.220526 -0.414312
5.165000 14.056231 -57.392494 -0.000000 0.160825 0.387001 -0.164940 -7.676684 794.082757 -0.000000 0.397703 0.210538 -0.414411
5.170000 16.473795 -51.138691 -0.000000 0.166943 0.396135 -0.165314 3.157407 801.289060 -0.000000 0.392354 0.200879 -0.414410
5.175000 17.076646 -46.050569 -0.000000 0.173812 0.404957 -0.165679 15.948904 807.466954 -0.000000 0.386534 0.191948 -0.414214
5.180000 15.778500 -42.127288 -0.000000 0.181197 0.413337 -0.166120 30.843696 812.100317 -0.000000 0.380268 0.183338 -0.413929
5.185000 12.569211 -39.257230 -0.000000 0.189076 0.421273 -0.166579 47.696616 814.710553 -0.000000 0.373590 0.174980 -0.413752
5.190000 7.599847 -37.199087 -0.000000 0.197425 0.428660 -0.167088 65.520536 814.925496 -0.000000 0.366483 0.167241 -0.413546
5.195000 1.124113 -35.643056 -0.000000 0.206365 0.435549 -0.167291 84.202097 812.452842 -0.000000 0.359019 0.160231 -0.413376
5.200000 -6.483989 -34.242585 -0.000000 0.215490 0.441870 -0.167766 103.030791 807.198474 -0.000000 0.351182 0.153645 -0.413234
5.205000 -14.876032 -32.645194 -0.000000 0.225090 0.447617 -0.168228 122.124927 799.092287 -0.000000 0.343087 0.147464 -0.413079
5.210000 -23.672452 -30.508318 -0.000000 0.234953 0.452447 -0.168623 140.277109 788.350104 -0.000000 0.334667 0.142119 -0.412950
5.215000 -32.556944 -27.466811 -0.000000 0.245029 0.456740 -0.168928 157.808437 775.018442 -0.000000 0.326041 0.137191 -0.412779
5.220000 -41.161951 -23.217063 -0.000000 0.255454 0.460476 -0.169241 174.720624 759.121183 -0.000000 0.317215 0.132956 -0.412656
5.225000 -49.057402 -17.674102 -0.000000 0.265828 0.463664 -0.169423 190.139169 740.769591 -0.000000 0.308186 0.129375 -0.412565
5.230000 -55.862845 -10.895425 -0.000000 0.276419 0.466179 -0.169832 204.508002 719.587011 -0.000000 0.299035 0.126337 -0.412567
5.235000 -61.239397 -3.203464 -0.000000 0.286758 0.468038 -0.169990 216.804112 695.368604 -0.000000 0.289774 0.123983 -0.412623
5.240000 -64.971944 5.183904 -0.000000 0.297241 0.469352 -0.170271 228.103478 667.137032 -0.000000 0.280343 0.122234 -0.412716
5.245000 -66.902259 13.961239 -0.000000 0.307729 0.469996 -0.170561 237.774327 634.318574 -0.000000 0.270889 0.121148 -0.412887
5.250000 -66.959705 22.919512 -0.000000 0.317648 0.470014 -0.170542 244.705917 596.544922 -0.000000 0.261370 0.120924 -0.413138
5.255000 -65.041974 32.330988 -0.000000 0.327828 0.469533 -0.170610 249.835764 552.729890 -0.000000 0.251841 0.121502 -0.413344
5.260000 -61.174611 42.454576 -0.000000 0.337419 0.468574 -0.170499 251.136087 503.292504 -0.000000 0.242287 0.122832 -0.413475
5.265000 -55.316059 54.087112 -0.000000 0.346434 0.467210 -0.170332 248.230175 448.389134 -0.000000 0.232588 0.124936 -0.412979
5.270000 -47.522809 68.281479 -0.000000 0.355114 0.465153 -0.169976 240.016147 389.015868 -0.000000 0.223560 0.127770 -0.413010
5.275000 -37.946289 86.440023 -0.000000 0.363037 0.462671 -0.169602 226.097487 326.411839 -0.000000 0.215131 0.131304 -0.413112
5.280000 -26.717019 110.184695 -0.000000 0.370464 0.459700 -0.169181 207.183957 261.682306 -0.000000 0.207271 0.135353 -0.413273
5.285000 -14.000744 140.962398 -0.000000 0.377275 0.456102 -0.168653 184.274123 196.098171 -0.000000 0.199626 0.139971 -0.413110
5.290000 -0.148190 179.694044 -0.000000 0.383427 0.451969 -0.167997 158.448909 131.147238 -0.000000 0.191995 0.145151 -0.412316
5.295000 13.787448 226.537171 -0.000000 0.388973 0.447137 -0.167247 130.815743 68.565126 -0.000000 0.185256 0.150851 -0.412156
5.300000 26.869647 280.723936 -0.000000 0.394018 0.442142 -0.166948 102.957445 9.417487 -0.000000 0.178809 0.157058 -0.411948
5.305000 38.868776 340.387195 -0.000000 0.398880 0.436162 -0.166786 75.872054 -45.407719 -0.000000 0.172553 0.164155 -0.411689
5.310000 48.561286 402.923645 -0.000000 0.403470 0.429799 -0.166644 49.973985 -94.417479 -0.000000 0.166680 0.172215 -0.411092
